<?xml version="1.0" standalone="no"?>
<!DOCTYPE svg PUBLIC "-//W3C//DTD SVG 20010904//EN"
 "http://www.w3.org/TR/2001/REC-SVG-20010904/DTD/svg10.dtd">
<svg version="1.0" xmlns="http://www.w3.org/2000/svg"
 width="1280.000000pt" height="1280.000000pt" viewBox="0 0 1280.000000 1280.000000"
 preserveAspectRatio="xMidYMid meet">
<metadata>
Created by potrace 1.15, written by Peter Selinger 2001-2017
</metadata>
<g transform="translate(0.000000,1280.000000) scale(0.100000,-0.100000)"
fill="#000000" stroke="none">
<path d="M6057 12142 c-34 -8 -49 -40 -137 -302 -74 -222 -111 -344 -150 -495
-45 -175 -96 -407 -116 -525 -4 -25 -8 -47 -9 -50 0 -3 -4 -27 -9 -53 -4 -27
-13 -50 -19 -51 -7 -2 -34 -8 -62 -14 -45 -10 -247 -57 -285 -66 -55 -15 -206
-61 -260 -81 -201 -73 -320 -120 -396 -156 l-86 -41 -163 169 c-164 171 -375
371 -521 496 -43 38 -90 79 -104 91 -34 29 -202 162 -268 211 -30 22 -58 39
-64 37 -35 -10 -308 -196 -478 -326 -161 -124 -180 -140 -180 -157 0 -9 18
-77 41 -151 22 -73 42 -140 44 -148 7 -33 96 -292 140 -409 69 -185 169 -419
247 -574 l69 -138 -98 -108 c-130 -143 -162 -183 -274 -336 -81 -110 -259
-387 -259 -402 0 -14 -63 -92 -71 -88 -10 7 -28 10 -234 44 -71 12 -155 25
-185 31 -30 5 -91 14 -135 19 -44 6 -114 15 -155 20 -41 6 -115 13 -165 16
-49 3 -139 10 -200 15 -60 5 -176 12 -256 15 l-146 5 -37 -103 c-21 -56 -41
-111 -46 -122 -37 -83 -170 -512 -170 -547 0 -19 111 -113 280 -236 25 -18 67
-49 94 -69 49 -36 314 -212 398 -265 71 -43 358 -206 435 -246 54 -27 71 -41
68 -53 -38 -119 -38 -964 0 -1110 6 -24 1 -28 -117 -83 -359 -171 -721 -373
-1003 -562 -190 -128 -178 -116 -172 -161 14 -113 191 -670 235 -741 12 -19
483 -27 752 -13 211 11 467 32 605 50 39 6 93 13 121 17 l51 6 97 -162 c168
-281 329 -496 519 -696 l67 -71 -63 -114 c-132 -235 -277 -540 -382 -799 -25
-63 -52 -128 -59 -145 -8 -16 -21 -50 -29 -75 -9 -25 -31 -87 -51 -139 l-35
-94 28 -26 c71 -68 280 -229 473 -366 70 -49 148 -95 163 -95 26 0 349 226
573 400 25 19 60 46 78 60 68 53 255 218 395 351 l147 139 93 -44 c52 -24 139
-60 194 -81 55 -20 127 -47 161 -60 102 -39 351 -108 529 -147 134 -29 123
-22 130 -86 14 -124 58 -414 80 -522 3 -14 7 -41 10 -60 4 -19 11 -55 16 -80
6 -25 14 -63 19 -85 5 -22 16 -71 25 -109 9 -38 19 -78 21 -89 10 -53 66 -263
109 -408 l17 -55 251 -12 c184 -9 295 -10 411 -2 88 6 160 11 161 13 7 10 64
163 97 256 76 221 176 574 224 791 4 19 8 37 9 40 1 3 5 25 9 50 4 25 12 61
16 80 12 45 41 201 43 228 1 22 20 29 157 57 190 38 524 141 687 211 17 8 34
14 37 14 8 0 117 48 175 77 l44 22 196 -201 c175 -180 364 -358 501 -473 259
-217 399 -325 421 -325 34 0 344 213 573 393 44 34 83 65 88 68 5 3 -2 45 -17
95 -15 49 -35 121 -46 159 -91 318 -248 723 -406 1048 -35 70 -63 132 -63 137
0 5 35 47 78 92 91 98 148 166 217 257 27 37 60 80 72 96 74 97 104 143 211
324 46 77 90 145 98 152 13 11 61 6 159 -17 29 -7 213 -36 415 -65 195 -28
613 -61 798 -63 l124 -1 25 65 c55 144 162 452 178 515 5 17 9 35 11 40 45
166 46 162 -17 210 -29 22 -66 51 -84 65 -139 107 -280 209 -395 286 -138 92
-366 234 -375 234 -3 0 -24 11 -46 26 -49 30 -72 44 -211 118 -60 32 -108 61
-108 64 0 4 7 66 14 137 14 131 22 396 17 620 -2 117 -25 367 -35 384 -3 4 14
16 37 26 23 10 110 51 192 91 168 81 297 150 500 264 166 94 540 335 564 364
23 27 -62 323 -209 733 l-22 61 -137 7 c-155 9 -617 0 -796 -14 -212 -17 -529
-52 -588 -64 -5 -1 -17 10 -26 25 -110 185 -206 344 -213 352 -5 6 -52 70
-106 143 -54 72 -152 193 -217 268 -66 75 -121 140 -123 144 -1 5 27 62 64
127 134 240 278 544 385 814 17 41 34 84 38 95 5 11 14 34 21 50 19 47 100
272 100 278 0 3 -39 39 -87 79 -177 149 -540 408 -571 408 -31 0 -439 -289
-640 -452 -162 -132 -371 -317 -498 -440 l-60 -59 -105 49 c-57 27 -126 57
-154 66 -27 10 -59 22 -70 26 -159 67 -446 150 -685 199 -57 12 -85 22 -85 32
-1 14 -3 35 -31 224 -26 184 -66 413 -94 535 -4 19 -16 71 -25 115 -28 131
-31 145 -64 270 -67 249 -84 296 -111 308 -28 12 -728 20 -773 9z m733 -2476
c226 -33 259 -39 390 -72 128 -33 393 -118 415 -133 6 -4 42 -20 80 -36 87
-36 273 -131 366 -187 38 -24 78 -48 87 -53 56 -33 224 -155 317 -230 130
-104 384 -368 497 -515 178 -231 353 -538 449 -785 16 -44 90 -257 94 -275 2
-8 18 -69 34 -134 17 -66 33 -136 36 -155 52 -339 55 -368 55 -614 0 -216 -11
-361 -40 -532 -5 -33 -12 -77 -16 -99 -17 -114 -132 -498 -180 -604 -118 -261
-196 -402 -322 -587 -361 -529 -891 -952 -1482 -1182 -127 -50 -137 -53 -260
-89 -196 -57 -273 -73 -560 -116 -113 -16 -597 -16 -710 0 -372 55 -559 102
-835 209 -237 92 -546 266 -740 416 -27 21 -75 57 -105 80 -75 56 -393 375
-466 467 -375 473 -603 993 -685 1560 -18 129 -39 377 -39 470 0 99 23 371 39
475 36 219 33 208 92 415 62 220 111 343 216 555 120 239 284 482 475 701 110
126 280 288 389 369 15 11 60 45 100 75 67 51 168 120 211 145 187 110 275
156 459 238 253 114 718 223 1024 241 126 8 514 -4 615 -18z"/>
</g>
</svg>
